<svg width="94" height="110" viewBox="0 0 94 110" fill="none" xmlns="http://www.w3.org/2000/svg">
<path d="M3.41351 101.365L0.00352252 10.5602C-0.0479385 9.11797 0.46612 7.71272 1.43606 6.64414C2.406 5.57556 3.75506 4.92823 5.19551 4.84021L82.4153 0.0112199C83.1698 -0.0369245 83.9261 0.0702143 84.6376 0.326011C85.349 0.581809 86.0004 0.980826 86.5514 1.49839C87.1025 2.01595 87.5416 2.64106 87.8414 3.33506C88.1413 4.02906 88.2956 4.7772 88.2948 5.53321V104.472C88.2941 105.219 88.1421 105.959 87.848 106.645C87.554 107.332 87.1239 107.952 86.5838 108.468C86.0436 108.984 85.4046 109.385 84.7052 109.647C84.0058 109.91 83.2606 110.028 82.5143 109.994L8.6935 106.678C7.30668 106.615 5.99401 106.034 5.01596 105.049C4.0379 104.064 3.46593 102.747 3.41351 101.359V101.365Z" fill="#FF4785"/>
<path fill-rule="evenodd" clip-rule="evenodd" d="M76.3433 0.390747L65.7174 1.05075L65.2004 13.5192C65.194 13.6752 65.2321 13.8298 65.3101 13.9651C65.3881 14.1003 65.503 14.2106 65.6412 14.2832C65.7794 14.3558 65.9354 14.3876 66.0911 14.3751C66.2467 14.3625 66.3955 14.306 66.5204 14.2122L71.3603 10.5382L75.4523 13.7612C75.5759 13.859 75.7248 13.9194 75.8816 13.9352C76.0384 13.951 76.1964 13.9216 76.3369 13.8504C76.4775 13.7793 76.5948 13.6693 76.6749 13.5336C76.7549 13.398 76.7945 13.2422 76.7888 13.0847L76.3488 0.390747H76.3433ZM68.0714 42.1356C66.1299 43.6481 51.6319 44.6766 51.6319 42.5261C51.9399 34.3147 48.2659 33.9572 46.2199 33.9572C44.2839 33.9572 41.0169 34.5402 41.0169 38.9402C41.0169 43.4226 45.7909 45.9526 51.3954 48.9226C59.3539 53.1411 68.9953 58.2506 68.9953 71.0986C68.9953 83.4186 58.9854 90.2165 46.2254 90.2165C33.0529 90.2165 21.5415 84.887 22.8395 66.4126C23.351 64.2456 40.0984 64.7626 40.0984 66.4126C39.8894 74.0356 41.6274 76.2796 46.0164 76.2796C49.3879 76.2796 50.9169 74.4206 50.9169 71.2966C50.9169 66.5611 45.9449 63.7671 40.2194 60.5551C32.4699 56.2046 23.351 51.0841 23.351 39.3307C23.351 27.6047 31.4139 19.7837 45.8129 19.7837C60.2119 19.7837 68.0714 27.4837 68.0714 42.1356V42.1356Z" fill="white"/>
</svg>
