<svg width="111" height="110" viewBox="0 0 111 110" fill="none" xmlns="http://www.w3.org/2000/svg">
<g clip-path="url(#clip0_325_9784)">
<path d="M99.7611 0H11.2455C5.31274 0 0.503296 4.80944 0.503296 10.7422V99.2578C0.503296 105.191 5.31274 110 11.2455 110H99.7611C105.694 110 110.503 105.191 110.503 99.2578V10.7422C110.503 4.80944 105.694 0 99.7611 0Z" fill="#3178C6"/>
<path d="M99.7611 0H11.2455C5.31274 0 0.503296 4.80944 0.503296 10.7422V99.2578C0.503296 105.191 5.31274 110 11.2455 110H99.7611C105.694 110 110.503 105.191 110.503 99.2578V10.7422C110.503 4.80944 105.694 0 99.7611 0Z" fill="#3178C6"/>
<path fill-rule="evenodd" clip-rule="evenodd" d="M68.5957 87.5325V98.2878C70.3441 99.1841 72.4119 99.8562 74.7993 100.304C77.1866 100.752 79.7027 100.977 82.3478 100.977C84.9257 100.977 87.3745 100.73 89.6946 100.237C92.0147 99.7442 94.0491 98.9319 95.7975 97.8003C97.5459 96.6689 98.9301 95.19 99.95 93.3638C100.97 91.5376 101.48 89.2803 101.48 86.5915C101.48 84.642 101.189 82.9336 100.606 81.466C100.023 79.9984 99.1823 78.6932 98.0838 77.5504C96.9855 76.4077 95.6685 75.3824 94.1331 74.4749C92.5976 73.5674 90.8659 72.7104 88.9381 71.9039C87.526 71.3212 86.2595 70.7556 85.1386 70.2066C84.0178 69.6575 83.0652 69.0974 82.2806 68.5261C81.4959 67.9547 80.8907 67.3497 80.4649 66.7111C80.0391 66.0724 79.826 65.3499 79.826 64.5431C79.826 63.8039 80.0165 63.1372 80.3977 62.5434C80.7788 61.9495 81.3168 61.4399 82.0116 61.0141C82.7066 60.5885 83.5582 60.2579 84.5669 60.0226C85.5758 59.7874 86.6965 59.6698 87.9294 59.6698C88.826 59.6698 89.773 59.7371 90.7705 59.8714C91.7681 60.0059 92.7712 60.2132 93.7801 60.4931C94.7888 60.7733 95.7693 61.1263 96.7221 61.5519C97.6748 61.9777 98.5545 62.4705 99.3615 63.0309V52.9813C97.7253 52.354 95.9375 51.8891 93.9986 51.5866C92.0596 51.2841 89.8347 51.1328 87.3242 51.1328C84.7687 51.1328 82.3478 51.4074 80.0614 51.9563C77.7751 52.5052 75.7633 53.3622 74.0258 54.5273C72.2886 55.6927 70.9158 57.177 69.9071 58.9808C68.8984 60.7845 68.3939 62.9411 68.3939 65.4506C68.3939 68.6548 69.3186 71.3885 71.168 73.6517C73.0171 75.9146 75.8247 77.8304 79.5907 79.3989C81.0701 80.0039 82.4488 80.5976 83.7265 81.1802C85.0041 81.7629 86.1082 82.3679 87.0383 82.9952C87.9686 83.6226 88.7027 84.306 89.2409 85.0455C89.7788 85.7847 90.0478 86.625 90.0478 87.5662C90.0478 88.2608 89.8796 88.9049 89.5434 89.4987C89.2071 90.0926 88.6971 90.6078 88.0135 91.0448C87.3298 91.4818 86.478 91.8234 85.4581 92.0698C84.438 92.3164 83.2446 92.4395 81.8771 92.4395C79.5458 92.4395 77.2371 92.0307 74.9505 91.2128C72.6642 90.3951 70.5458 89.1683 68.5957 87.5325V87.5325ZM50.5146 61.0332H64.3119V52.207H25.8549V61.0332H39.5847V100.332H50.5146V61.0332Z" fill="white"/>
</g>
<defs>
<clipPath id="clip0_325_9784">
<rect width="110" height="110" fill="white" transform="translate(0.503296)"/>
</clipPath>
</defs>
</svg>
