<svg width="35" height="16" viewBox="0 0 35 16" fill="none" xmlns="http://www.w3.org/2000/svg">
<g id="logo" clip-path="url(#clip0_185_6872)">
<path id="Vector" d="M15.4933 2.44372H8.92427V13.8347H10.5339L10.7488 15.2064L12.9253 13.8347H15.4933V2.44372ZM12.7163 12.4117L11.4384 13.2165L11.3131 12.4123H10.3936V3.85759H14.0096V12.4123H12.7163V12.4117ZM7.712 7.56852H5.32373C5.32373 7.31732 5.34133 7.05972 5.34453 6.79092V3.85759H8.06773V3.16533C8.06724 3.07025 8.04795 2.9762 8.01098 2.88861C7.974 2.80101 7.92006 2.72159 7.85227 2.65493C7.71462 2.51942 7.52916 2.44355 7.336 2.44372H3.08427C3.0992 2.39679 3.11413 2.34933 3.12907 2.30773C3.2752 1.87039 3.744 0.533858 3.744 0.533858C3.28737 0.525844 2.83891 0.655568 2.45707 0.906125C2.15307 1.11946 1.97067 1.26986 1.72587 1.94399C1.44213 2.71892 1.19413 3.46719 1.0272 3.91359C0.770133 4.62612 0.149333 5.87999 0.149333 5.87999C0.616028 5.87344 1.07531 5.76227 1.49333 5.55466C2.09013 5.23839 2.3888 4.75359 2.5888 4.01706L2.6368 3.85706H3.8816V6.79039C3.8816 7.05706 3.8576 7.31413 3.84267 7.56906H1.64533C1.26667 7.56906 0.904 7.71732 0.635733 7.98239C0.50354 8.11313 0.39857 8.26877 0.326892 8.44033C0.255214 8.61188 0.218249 8.79593 0.218133 8.98186H3.6992C3.62977 9.64336 3.49069 10.2957 3.28427 10.928C2.92412 11.9552 2.37976 12.9082 1.67787 13.7403C1.15384 14.3056 0.593349 14.8359 0 15.328C0 15.328 1.66933 15.9547 2.89333 14.8192C3.6336 14.1301 4.29653 12.7851 4.616 11.7648C4.90335 10.8563 5.10336 9.92247 5.21333 8.97599H8.39573V8.24532C8.3962 8.15618 8.37885 8.06784 8.34468 7.9855C8.31052 7.90316 8.26024 7.82849 8.1968 7.76586C8.13296 7.70267 8.05728 7.65271 7.97408 7.61884C7.89089 7.58498 7.80182 7.56788 7.712 7.56852V7.56852Z" fill="white"/>
<path id="Vector_2" d="M6.01065 10.4933L4.77759 11.2885L7.46452 15.2661C7.64978 14.8948 7.77095 14.4949 7.82292 14.0832C7.91276 13.6923 7.85979 13.2822 7.67359 12.9269L6.01065 10.4933V10.4933ZM27.4395 8.104V3.11573C29.6693 3.0064 31.6997 2.89973 32.4731 2.85813L32.9269 2.83146C33.1333 2.61866 33.3989 1.55413 33.2944 1.22026C33.2555 1.08693 33.1808 0.865064 32.9541 0.924264C32.203 1.10299 31.441 1.2325 30.6731 1.312C29.1979 1.4832 28.5557 1.52746 26.5109 1.67573C22.928 1.93546 19.7328 2.05973 19.7328 2.05973C19.7325 2.24281 19.7696 2.42401 19.8419 2.59222C19.9141 2.76043 20.02 2.91208 20.1531 3.03786C20.2865 3.16499 20.4442 3.26387 20.6168 3.32857C20.7893 3.39327 20.9732 3.42246 21.1573 3.4144C22.3723 3.36373 24.1429 3.28106 25.9552 3.19573V8.104H19.1392C19.1392 8.47893 19.2891 8.8384 19.5568 9.10347C19.8255 9.36907 20.1881 9.51798 20.5659 9.51787H25.9552V13.2912C25.9552 13.7643 25.7077 13.9269 25.2987 13.9387H23.208C23.2963 14.2419 23.4485 14.5226 23.6544 14.7621C23.8608 15.0026 24.1158 15.1966 24.4027 15.3312C24.8676 15.4867 25.3612 15.5372 25.848 15.4789C26.5733 15.4437 27.4304 15.0384 27.4304 13.5749V9.51787H33.4464C33.6288 9.51787 33.8037 9.44587 33.9317 9.3184C34.0608 9.19093 34.1333 9.01813 34.1333 8.83733V8.104H27.4395Z" fill="white"/>
<path id="Vector_3" d="M23.7274 4.7323C23.6325 4.60104 23.5126 4.48983 23.3746 4.40507C23.2365 4.32032 23.0831 4.26369 22.9231 4.23844C22.5996 4.18641 22.2687 4.26403 22.002 4.45444L21.8015 4.5995L24.0708 7.7195L25.2655 6.8555L23.7274 4.73284V4.7323ZM31.5866 4.62937L29.9199 6.81444L31.1146 7.70137L33.5236 4.5403L33.3236 4.39257C33.194 4.29389 33.0461 4.2218 32.8885 4.18043C32.7309 4.13907 32.5667 4.12923 32.4052 4.1515C32.0797 4.19606 31.7851 4.36791 31.586 4.62937H31.5866Z" fill="white"/>
</g>
<defs>
<clipPath id="clip0_185_6872">
<rect width="34.1333" height="16" fill="white"/>
</clipPath>
</defs>
</svg>
