<svg width="28" height="28" viewBox="0 0 28 28" fill="none" xmlns="http://www.w3.org/2000/svg">
<g id="icon/history" clip-path="url(#clip0_239_7935)">
<g id="history_line">
<path id="&#229;&#189;&#162;&#231;&#138;&#182;" d="M3.89659 8.16689C7.11826 2.58682 14.2535 0.674943 19.8335 3.8966C24.0215 6.31457 26.1411 10.9355 25.5796 15.4463C25.5178 15.9439 25.4232 16.4402 25.2952 16.9321C25.0427 17.9026 23.8699 18.1845 23.1865 17.5515L23.0878 17.4497L20.4613 14.4312C19.6624 13.5131 20.4702 12.1313 21.624 12.3196L21.7535 12.3471L23.2484 12.7372C22.8694 9.97724 21.2642 7.41689 18.6669 5.91733C14.2029 3.34 8.49464 4.8695 5.91731 9.33356C3.33998 13.7976 4.86948 19.5058 9.33355 22.0831C13.179 24.3033 17.9504 23.4762 20.8453 20.3484C21.2829 19.8756 22.021 19.847 22.4939 20.2846C22.9669 20.7223 22.9953 21.4605 22.5577 21.9333C18.9388 25.8434 12.9766 26.8807 8.16688 24.1039C2.58681 20.8822 0.674929 13.7469 3.89659 8.16689ZM14 6.99998C14.5983 6.99998 15.0914 7.45036 15.1588 8.03059L15.1666 8.16665V13.5168L18.3249 16.675C18.7805 17.1306 18.7805 17.8694 18.3249 18.3249C17.9044 18.7455 17.2426 18.7778 16.7849 18.422L16.675 18.3249L13.175 14.8249C12.9926 14.6427 12.8769 14.4062 12.8434 14.1533L12.8333 14V8.16665C12.8333 7.52231 13.3556 6.99998 14 6.99998Z" fill="#606266"/>
</g>
</g>
<defs>
<clipPath id="clip0_239_7935">
<rect width="28" height="28" fill="white"/>
</clipPath>
</defs>
</svg>
