<svg width="28" height="28" viewBox="0 0 28 28" fill="none" xmlns="http://www.w3.org/2000/svg">
<g id="icon/close">
<mask id="mask0_230_8533" style="mask-type:alpha" maskUnits="userSpaceOnUse" x="0" y="0" width="28" height="28">
<rect id="Bounding box" width="28" height="28" fill="#D9D9D9"/>
</mask>
<g mask="url(#mask0_230_8533)">
<path id="close" d="M13.9999 15.6333L8.28327 21.35C8.06938 21.5639 7.79716 21.6708 7.4666 21.6708C7.13605 21.6708 6.86382 21.5639 6.64993 21.35C6.43605 21.1361 6.3291 20.8639 6.3291 20.5333C6.3291 20.2028 6.43605 19.9306 6.64993 19.7167L12.3666 14L6.64993 8.28334C6.43605 8.06946 6.3291 7.79723 6.3291 7.46668C6.3291 7.13612 6.43605 6.8639 6.64993 6.65001C6.86382 6.43612 7.13605 6.32918 7.4666 6.32918C7.79716 6.32918 8.06938 6.43612 8.28327 6.65001L13.9999 12.3667L19.7166 6.65001C19.9305 6.43612 20.2027 6.32918 20.5333 6.32918C20.8638 6.32918 21.136 6.43612 21.3499 6.65001C21.5638 6.8639 21.6708 7.13612 21.6708 7.46668C21.6708 7.79723 21.5638 8.06946 21.3499 8.28334L15.6333 14L21.3499 19.7167C21.5638 19.9306 21.6708 20.2028 21.6708 20.5333C21.6708 20.8639 21.5638 21.1361 21.3499 21.35C21.136 21.5639 20.8638 21.6708 20.5333 21.6708C20.2027 21.6708 19.9305 21.5639 19.7166 21.35L13.9999 15.6333Z" fill="#606266"/>
</g>
</g>
</svg>
