<svg width="28" height="28" viewBox="0 0 28 28" fill="none" xmlns="http://www.w3.org/2000/svg">
<g id="icon/add_circle_line">
<path id="&#229;&#189;&#162;&#231;&#138;&#182;&#231;&#187;&#147;&#229;&#144;&#136;" d="M13.9999 2.33334C20.4432 2.33334 25.6666 7.55668 25.6666 14C25.6666 20.4433 20.4432 25.6667 13.9999 25.6667C7.55659 25.6667 2.33325 20.4433 2.33325 14C2.33325 7.55668 7.55659 2.33334 13.9999 2.33334ZM13.9999 4.66668C8.84526 4.66668 4.66659 8.84535 4.66659 14C4.66659 19.1547 8.84526 23.3333 13.9999 23.3333C19.1546 23.3333 23.3333 19.1547 23.3333 14C23.3333 8.84535 19.1546 4.66668 13.9999 4.66668ZM13.9999 8.16668C14.6443 8.16668 15.1666 8.689 15.1666 9.33334V12.8333H18.6666C19.3109 12.8333 19.8333 13.3557 19.8333 14C19.8333 14.6444 19.3109 15.1667 18.6666 15.1667H15.1666V18.6667C15.1666 19.311 14.6443 19.8333 13.9999 19.8333C13.3556 19.8333 12.8333 19.311 12.8333 18.6667V15.1667H9.33325C8.68893 15.1667 8.16659 14.6444 8.16659 14C8.16659 13.3557 8.68893 12.8333 9.33325 12.8333H12.8333V9.33334C12.8333 8.689 13.3556 8.16668 13.9999 8.16668Z" fill="#606266"/>
</g>
</svg>
