<svg width="20" height="20" viewBox="0 0 20 20" fill="none" xmlns="http://www.w3.org/2000/svg">
<g id="icon/add_circle_line">
<path id="&#229;&#189;&#162;&#231;&#138;&#182;&#231;&#187;&#147;&#229;&#144;&#136;" d="M9.99996 1.66666C14.6023 1.66666 18.3333 5.39761 18.3333 9.99999C18.3333 14.6023 14.6023 18.3333 9.99996 18.3333C5.39758 18.3333 1.66663 14.6023 1.66663 9.99999C1.66663 5.39761 5.39758 1.66666 9.99996 1.66666ZM9.99996 3.33332C6.31806 3.33332 3.33329 6.31809 3.33329 9.99999C3.33329 13.6819 6.31806 16.6667 9.99996 16.6667C13.6819 16.6667 16.6666 13.6819 16.6666 9.99999C16.6666 6.31809 13.6819 3.33332 9.99996 3.33332ZM9.99996 5.83332C10.4602 5.83332 10.8333 6.20642 10.8333 6.66666V9.16666H13.3333C13.7935 9.16666 14.1666 9.53974 14.1666 9.99999C14.1666 10.4602 13.7935 10.8333 13.3333 10.8333H10.8333V13.3333C10.8333 13.7936 10.4602 14.1667 9.99996 14.1667C9.53971 14.1667 9.16663 13.7936 9.16663 13.3333V10.8333H6.66663C6.20639 10.8333 5.83329 10.4602 5.83329 9.99999C5.83329 9.53974 6.20639 9.16666 6.66663 9.16666H9.16663V6.66666C9.16663 6.20642 9.53971 5.83332 9.99996 5.83332Z" fill="white"/>
</g>
</svg>
