<?xml version="1.0" standalone="no"?><!DOCTYPE svg PUBLIC "-//W3C//DTD SVG 1.1//EN"
        "http://www.w3.org/Graphics/SVG/1.1/DTD/svg11.dtd">
<svg t="1669254072087" class="icon" viewBox="0 0 1024 1024" version="1.1" xmlns="http://www.w3.org/2000/svg" p-id="2188"
     xmlns:xlink="http://www.w3.org/1999/xlink" width="200" height="200">
    <path d="M512 384C443.733333 384 377.6 394.666667 315.733333 414.72L315.733333 546.986667C315.733333 564.053333 305.92 578.56 291.84 585.386667 250.026667 606.293333 212.053333 633.173333 177.92 664.32 170.666667 672 160 676.693333 149.333333 676.693333 136.533333 676.693333 125.866667 671.573333 118.186667 663.893333L12.373333 558.08C4.693333 550.4 0 539.733333 0 528.213333 0 516.266667 4.693333 505.6 12.373333 497.92 142.506667 374.186667 318.293333 298.666667 512 298.666667 705.706667 298.666667 881.493333 374.186667 1011.626667 497.92 1019.306667 505.6 1024 516.266667 1024 528.213333 1024 539.733333 1019.306667 550.4 1011.626667 558.08L905.813333 663.893333C898.133333 671.573333 887.466667 676.693333 874.666667 676.693333 864 676.693333 853.333333 672 845.653333 664.32 811.946667 633.173333 773.973333 606.293333 732.16 585.386667 718.08 578.56 708.266667 564.053333 708.266667 546.986667L708.266667 414.72C646.4 394.666667 580.266667 384 512 384Z"
          p-id="2189"></path>
</svg>
