<?xml version="1.0" standalone="no"?><!DOCTYPE svg PUBLIC "-//W3C//DTD SVG 1.1//EN" "http://www.w3.org/Graphics/SVG/1.1/DTD/svg11.dtd"><svg t="1667721438818" class="icon" viewBox="0 0 1024 1024" version="1.1" xmlns="http://www.w3.org/2000/svg" p-id="2521" xmlns:xlink="http://www.w3.org/1999/xlink" width="200" height="200"><path d="M510.1 475.9L378.4 339.5c-10.4-10.7-27.4-10.9-38.1-0.5-5.2 4.9-8.2 11.7-8.3 18.9-0.2 7.2 2.6 14.1 7.5 19.2l131.7 136.4-136.4 131.7c-10.7 10.4-10.9 27.4-0.5 38.1 4.9 5.2 11.7 8.2 18.9 8.3 7.2 0.2 14.1-2.6 19.2-7.5l136.4-131.7 131.7 136.4c10.4 10.7 27.4 10.9 38.1 0.5 5.2-4.9 8.2-11.7 8.3-18.9 0.2-7.2-2.6-14.1-7.5-19.2L547.7 514.8l136.4-131.7c10.7-10.4 10.9-27.4 0.5-38.1-4.9-5.2-11.7-8.2-18.9-8.3-7.2-0.2-14.1 2.6-19.2 7.5L510.1 475.9zM220.4 793.2c-155.7-161.3-151.2-418.2 10-574 161.3-155.7 418.2-151.2 574 10 155.7 161.3 151.3 418.2-10 574-161.3 155.7-418.2 151.3-574-10z m0 0" p-id="2522" fill="#d81e06"></path></svg>